# xmcd CD database file
#
# Track frame offsets:
#	183
#	13340
#	31608
#	42543
#	57380
#	72925
#	87550
#	98715
#	112170
#	130623
#	145080
#	158993
#	176183
#	191335
#	210640
#	224145
#
# Disc length: 3270 seconds
#
# Revision: 0
# Processed by: cddbd v1.4b41PL1 Copyright (c) Steve Scherf et al.
# Submitted via: Feurio! 1.61 - http://www.feurio.com
#
DISCID=f20cc410
DTITLE=Various Artist - Deutschland's 70er Hits eines jahrzehnts
DYEAR=1900
DGENRE=
TTITLE0=Marianne Rosenberg - Fremder Mann
TTITLE1=Roland Kaiser - Frei, das heißt allein (Verde)
TTITLE2=Phil and John - Hello, Mary Lou
TTITLE3=Bernd Clüver - Der junge mit der Mundharmonika
TTITLE4=Julianne Werding - Am Tag als conny Cramer starb
TTITLE5=Randolph Rose - Silver Moon baby
TTITLE6=Severine - Ja,der Eifelturm
TTITLE7=Benny - Amigo,Charly Brown
TTITLE8=Udo Jürgens - Grichiescher Wein
TTITLE9=Daisy Door - Du lebst in deiner Welt
TTITLE10=Ricky Shayne - Ginny komm näher
TTITLE11=Peter Petrel - Ich fahr so gerne Rad
TTITLE12=Gebrüder Blattschuß - Kreuzberger Nächte sind lang
TTITLE13=Frank Zander - Nick-Nack Man
TTITLE14=Gunter Gabriel - Hey Boß,ich brauch mehr Geld
TTITLE15=Christian Anders - Es fährt ein Zug nach nirgendwo
EXTD=
EXTT0=
EXTT1=
EXTT2=
EXTT3=
EXTT4=
EXTT5=
EXTT6=
EXTT7=
EXTT8=
EXTT9=
EXTT10=
EXTT11=
EXTT12=
EXTT13=
EXTT14=
EXTT15=
PLAYORDER=
